<svg width="26" height="25" viewBox="0 0 26 25" fill="none" xmlns="http://www.w3.org/2000/svg">
    <circle cx="18" cy="15" r="5" fill="white"/>
    <path fill-rule="evenodd" clip-rule="evenodd" d="M3.73193 10.7477C3.73193 5.95618 7.83056 2.08337 12.7883 2.08337C17.7599 2.08337 21.8586 5.95618 21.8586 10.7477C21.8586 13.1622 20.9597 15.4038 19.4803 17.3038C17.8481 19.3995 15.8364 21.2255 13.5721 22.6588C13.0538 22.9901 12.5861 23.0151 12.0174 22.6588C9.7401 21.2255 7.72842 19.3995 6.11026 17.3038C4.62972 15.4038 3.73193 13.1622 3.73193 10.7477ZM9.8035 11.0175C9.8035 12.6227 11.1443 13.8851 12.7882 13.8851C14.4333 13.8851 15.7869 12.6227 15.7869 11.0175C15.7869 9.42483 14.4333 8.10091 12.7882 8.10091C11.1443 8.10091 9.8035 9.42483 9.8035 11.0175Z" fill="#E14949"/>    
</svg>    