<svg width="34" height="35" viewBox="0 0 34 35" fill="none" xmlns="http://www.w3.org/2000/svg">
    <circle cx="18" cy="15" r="5" fill="white"/>
    <path fill-rule="evenodd" clip-rule="evenodd" d="M4.90002 15.0467C4.90002 8.33855 10.2815 2.91663 16.7909 2.91663C23.3186 2.91663 28.7 8.33855 28.7 15.0467C28.7 18.427 27.5198 21.5653 25.5773 24.2252C23.4344 27.1593 20.793 29.7156 17.82 31.7223C17.1395 32.186 16.5254 32.221 15.7787 31.7223C12.7887 29.7156 10.1473 27.1593 8.02273 24.2252C6.0788 21.5653 4.90002 18.427 4.90002 15.0467ZM12.8719 15.4244C12.8719 17.6716 14.6323 19.4391 16.7908 19.4391C18.9508 19.4391 20.7281 17.6716 20.7281 15.4244C20.7281 13.1947 18.9508 11.3412 16.7908 11.3412C14.6323 11.3412 12.8719 13.1947 12.8719 15.4244Z" fill="#407CE2"/>
</svg>