<svg width="24" height="24" viewBox="0 0 24 24" fill="none" xmlns="http://www.w3.org/2000/svg">

<path d="M12.65 2.23993L12 1.67993L11.35 2.23993C11 2.49993 4 8.59993 4 13.9999C4 16.1217 4.84285 18.1565 6.34315 19.6568C7.84344 21.1571 9.87827 21.9999 12 21.9999C14.1217 21.9999 16.1566 21.1571 17.6569 19.6568C19.1571 18.1565 20 16.1217 20 13.9999C20 8.59993 13 2.49993 12.65 2.23993ZM14.23 18.4699L13.34 16.6799C13.8381 16.4312 14.2572 16.0489 14.5504 15.5755C14.8436 15.1022 14.9992 14.5567 15 13.9999H17C16.999 14.9288 16.7394 15.839 16.2501 16.6285C15.7609 17.418 15.0613 18.0557 14.23 18.4699Z" fill="#9C4A6B"/>

</svg>


