<svg width="20" height="22" viewBox="0 0 20 22" fill="none" xmlns="http://www.w3.org/2000/svg">

<path d="M9.88889 20V21M17.8889 11H18.7778M9.88889 2V1M1.88889 11H1" stroke="white" stroke-width="2" stroke-linecap="round"/>

<path d="M15.6667 17.5L16.1112 18M15.6667 4.5L16.1112 4M4.11119 4.5L3.66675 4M4.11119 17.5L3.66675 18" stroke="white" stroke-width="2" stroke-linecap="round"/>

<mask id="mask0_101_1025" style="mask-type:luminance" maskUnits="userSpaceOnUse" x="-1" y="-2" width="23" height="25">

<path d="M20.0555 11C20.0555 17.4083 15.45 22.5 9.88883 22.5C4.32768 22.5 -0.277832 17.4083 -0.277832 11C-0.277832 4.59173 4.32768 -0.5 9.88883 -0.5C15.45 -0.5 20.0555 4.59173 20.0555 11Z" fill="white" stroke="white"/>

<path d="M20.9444 1C20.9444 2.4377 19.9206 3.5 18.7778 3.5C17.6349 3.5 16.6111 2.4377 16.6111 1C16.6111 -0.437702 17.6349 -1.5 18.7778 -1.5C19.9206 -1.5 20.9444 -0.437703 20.9444 1Z" fill="white" stroke="white"/>

<path d="M19.1664 1C19.1664 1.33313 18.9386 1.5 18.7776 1.5C18.6165 1.5 18.3887 1.33313 18.3887 1C18.3887 0.666867 18.6165 0.5 18.7776 0.5C18.9386 0.5 19.1664 0.666867 19.1664 1Z" fill="black" stroke="white"/>

</mask>

<g mask="url(#mask0_101_1025)">

<path d="M14.7221 11C14.7221 14.0946 12.5044 16.5 9.88875 16.5C7.27311 16.5 5.05542 14.0946 5.05542 11C5.05542 7.90544 7.27311 5.5 9.88875 5.5C12.5044 5.5 14.7221 7.90544 14.7221 11Z" fill="black" stroke="white"/>

</g>

</svg>



