<svg width="13" height="14" viewBox="0 0 13 14" fill="none" xmlns="http://www.w3.org/2000/svg">
    <path fill-rule="evenodd" clip-rule="evenodd" d="M1.89584 5.69555C1.89584 3.15634 3.97795 1.104 6.49646 1.104C9.02208 1.104 11.1042 3.15634 11.1042 5.69555C11.1042 6.97509 10.6476 8.16299 9.89599 9.16984C9.06686 10.2805 8.04493 11.2481 6.89464 12.0077C6.63137 12.1832 6.39378 12.1965 6.10484 12.0077C4.94799 11.2481 3.92606 10.2805 3.10403 9.16984C2.35192 8.16299 1.89584 6.97509 1.89584 5.69555ZM4.98022 5.8385C4.98022 6.68914 5.66132 7.35816 6.49646 7.35816C7.33214 7.35816 8.0198 6.68914 8.0198 5.8385C8.0198 4.99449 7.33214 4.2929 6.49646 4.2929C5.66132 4.2929 4.98022 4.99449 4.98022 5.8385Z" fill="#221F1F" fill-opacity="0.4"/>
</svg>