<svg width="20" height="20" viewBox="0 0 20 20" fill="none" xmlns="http://www.w3.org/2000/svg">

<path d="M20 10.2249C20 9.56654 19.9404 8.94155 19.8382 8.33322H10.2172V12.0915H15.7259C15.479 13.3248 14.7553 14.3665 13.6825 15.0748V17.5748H16.9689C18.8931 15.8332 20 13.2665 20 10.2249Z" fill="#4285F4"/>

<path d="M10.2173 19.9998C12.9759 19.9998 15.2833 19.0998 16.9691 17.5748L13.6826 15.0749C12.7631 15.6748 11.5966 16.0415 10.2173 16.0415C7.55237 16.0415 5.29612 14.2832 4.48727 11.9082H1.09862V14.4832C2.77592 17.7498 6.22416 19.9998 10.2173 19.9998Z" fill="#34A853"/>

<path d="M4.48697 11.9082C4.27412 11.3082 4.16344 10.6665 4.16344 9.99988C4.16344 9.33322 4.28263 8.69156 4.48697 8.09157V5.51659H1.09833C0.400166 6.86658 0 8.38323 0 9.99988C0 11.6165 0.400166 13.1332 1.09833 14.4832L4.48697 11.9082Z" fill="#FBBC05"/>

<path d="M10.2172 3.9583C11.7242 3.9583 13.0694 4.46663 14.1337 5.45829L17.0456 2.60831C15.2831 0.991658 12.9758 0 10.2172 0C6.22404 0 2.77579 2.24998 1.0985 5.51662L4.48715 8.0916C5.29599 5.71662 7.55225 3.9583 10.2172 3.9583Z" fill="#EA4335"/>

</svg>



