<svg width="19" height="26" viewBox="0 0 19 26" fill="none" xmlns="http://www.w3.org/2000/svg">
    <path d="M11.0833 6.79646V0H1.1875C0.529427 0 0 0.534721 0 1.19938V24.3873C0 25.0519 0.529427 25.5867 1.1875 25.5867H17.8125C18.4706 25.5867 19 25.0519 19 24.3873V7.99583H12.2708C11.6177 7.99583 11.0833 7.45611 11.0833 6.79646ZM14.3084 17.5913H11.0833V21.5893C11.0833 22.031 10.7291 22.3888 10.2917 22.3888H8.70833C8.27094 22.3888 7.91667 22.031 7.91667 21.5893V17.5913H4.69161C3.98505 17.5913 3.63227 16.7273 4.13398 16.224L8.90477 11.4415C9.2338 11.1112 9.76521 11.1112 10.0942 11.4415L14.865 16.224C15.3672 16.7273 15.0149 17.5913 14.3084 17.5913ZM18.6536 5.24727L13.8096 0.349818C13.587 0.124935 13.2852 0 12.9685 0H12.6667V6.39667H19V6.09183C19 5.77699 18.8763 5.47215 18.6536 5.24727Z" fill="black"/>
</svg>