<svg width="21" height="22" viewBox="0 0 21 22" fill="none" xmlns="http://www.w3.org/2000/svg">
    <path d="M7.54968 20.0284V16.8755C7.54966 16.0766 8.19934 15.4275 9.00405 15.4225H11.9588C12.7671 15.4225 13.4224 16.073 13.4224 16.8755V16.8755V20.0192C13.4224 20.7122 13.9855 21.2754 14.6835 21.2804H16.6993C17.6408 21.2828 18.5446 20.9132 19.2112 20.2531C19.8778 19.593 20.2524 18.6967 20.2524 17.762V8.806C20.2524 8.05095 19.9153 7.33473 19.332 6.85031L12.4835 1.41276C11.2864 0.461667 9.57661 0.49239 8.41494 1.48587L1.71377 6.85031C1.10284 7.32045 0.737686 8.03879 0.719642 8.806V17.7528C0.719642 19.701 2.31042 21.2804 4.27273 21.2804H6.24258C6.57863 21.2828 6.90176 21.152 7.14025 20.9169C7.37874 20.6819 7.51287 20.362 7.51286 20.0284H7.54968Z" stroke="#221F1F" stroke-opacity="0.6" stroke-width="1.4"/>    
</svg>    