<svg width="24" height="24" viewBox="0 0 24 24" fill="none" xmlns="http://www.w3.org/2000/svg">
    <path d="M21.0912 20.2518C21.2506 20.248 21.4063 20.203 21.5435 20.1211C21.6806 20.0392 21.7946 19.9231 21.8745 19.784C21.9545 19.6449 21.9976 19.4874 21.9999 19.3266L20.5552 17.9139C20.1645 17.677 19.8412 17.3421 19.6168 16.9418C19.3924 16.5415 19.2745 16.0895 19.2745 15.6297H18.5745C18.5745 16.2091 18.723 16.779 19.0062 17.2841M21.0912 20.2518V19.5518H21.08M21.0912 20.2518L21.0745 19.552C21.0763 19.552 21.0782 19.5519 21.08 19.5518M21.0912 20.2518H2.91261C2.71132 20.2493 2.51636 20.1805 2.35736 20.0559L13.8505 3.8064M21.08 19.5518C21.1166 19.55 21.1524 19.5393 21.1844 19.5201L21.1846 19.5201C21.2183 19.4999 21.247 19.471 21.2675 19.4353L21.2676 19.4352C21.2881 19.3995 21.2994 19.3587 21.3 19.3168L21.3 19.3166C21.3006 19.2746 21.2905 19.2335 21.2709 19.1971L21.2714 19.1967C21.253 19.1648 21.2273 19.1389 21.1971 19.1208L21.1936 19.1188L20.1926 18.5127L20.1922 18.5125C19.6978 18.2126 19.2894 17.7893 19.0062 17.2841M21.08 19.5518H2.91859C2.87234 19.5506 2.82692 19.5345 2.78907 19.5049L2.78897 19.5048C2.75031 19.4745 2.72144 19.4314 2.70809 19.3814C2.69474 19.3313 2.69801 19.2782 2.71719 19.2304C2.73635 19.1827 2.76992 19.1438 2.8116 19.1187L2.81297 19.1178L3.81401 18.5118L3.8145 18.5115C4.3089 18.2117 4.71725 17.7883 5.00044 17.2832L4.38986 16.9409L5.00044 17.2832C5.28361 16.7781 5.43217 16.2082 5.43213 15.6287C5.43213 15.6287 5.43213 15.6287 5.43213 15.6287L5.43213 10.1683C5.43213 10.1682 5.43213 10.168 5.43213 10.1679C5.43307 8.73342 5.89453 7.33849 6.74656 6.19183L6.74656 6.19183C7.59827 5.04557 8.79419 4.20932 10.1546 3.80686C10.3649 3.74556 10.5487 3.61801 10.6798 3.44456L10.68 3.44426C10.8116 3.26997 10.8835 3.05808 10.8856 2.84011L10.8856 2.84011V2.83349C10.8856 2.53093 11.0048 2.24197 11.2151 2.02985C11.4252 1.81794 11.7089 1.7 12.0033 1.7C12.2978 1.7 12.5814 1.81793 12.7915 2.02985L13.2729 1.55259L12.7915 2.02985C13.0018 2.24197 13.121 2.53094 13.121 2.83349H13.121L13.1211 2.83964C13.123 3.05756 13.1947 3.26968 13.3265 3.44426L13.3267 3.44454C13.4576 3.61771 13.6409 3.745 13.8505 3.8064M19.0062 17.2841L19.6126 16.9442L19.0062 17.2842C19.0062 17.2841 19.0062 17.2841 19.0062 17.2841ZM18.5745 10.1683V15.6296V10.1683ZM18.5745 10.1683C18.5737 8.73368 18.1122 7.33859 17.2601 6.19183L17.7945 5.79474L17.2601 6.19183C16.408 5.04513 15.2115 4.20867 13.8505 3.8064M18.5745 10.1683L13.8505 3.8064" stroke="#221F1F" stroke-opacity="0.6" stroke-width="1.4"/>
    <path d="M11.6937 22.2762L11.6937 22.2761C11.3865 22.2281 11.0941 22.1089 10.8394 21.9273C10.8136 21.9088 10.7882 21.8896 10.7633 21.8699H13.241C13.0529 22.018 12.8401 22.1314 12.6122 22.2045C12.3155 22.2997 12.0012 22.3242 11.6937 22.2762Z" stroke="#221F1F" stroke-opacity="0.6" stroke-width="1.4"/>
</svg>