<svg width="13" height="14" viewBox="0 0 13 14" fill="none" xmlns="http://www.w3.org/2000/svg">
    <path d="M9.70585 7.90497C9.56556 8.04352 9.5011 8.24391 9.53306 8.44042L10.0146 11.1563C10.0552 11.3865 9.9599 11.6195 9.77085 11.7525C9.5856 11.8905 9.33914 11.9071 9.1371 11.7967L6.73806 10.5215C6.65465 10.4763 6.56202 10.452 6.46723 10.4492H6.32044C6.26952 10.4569 6.21969 10.4735 6.17419 10.4989L3.7746 11.7801C3.65598 11.8408 3.52165 11.8624 3.39002 11.8408C3.06935 11.779 2.8554 11.4677 2.90794 11.1392L3.39002 8.42331C3.42198 8.22514 3.35752 8.02365 3.21723 7.88289L1.26127 5.95083C1.09769 5.78909 1.04081 5.5462 1.11556 5.32705C1.18815 5.10845 1.3734 4.94892 1.5971 4.91304L4.28919 4.51503C4.49394 4.4935 4.67377 4.36654 4.76585 4.17885L5.9521 1.7003C5.98027 1.6451 6.01656 1.59431 6.06044 1.55125L6.10919 1.51261C6.13465 1.48391 6.1639 1.46017 6.1964 1.44085L6.25544 1.41877L6.34752 1.38013H6.57556C6.77923 1.40166 6.95852 1.52586 7.05223 1.71134L8.25419 4.17885C8.34085 4.35936 8.50931 4.48467 8.70377 4.51503L11.3959 4.91304C11.6234 4.94616 11.8135 5.10624 11.8888 5.32705C11.9597 5.54841 11.8985 5.79129 11.7317 5.95083L9.70585 7.90497Z" fill="#407CE2"/>   
</svg>