<svg width="23" height="22" viewBox="0 0 23 22" fill="none" xmlns="http://www.w3.org/2000/svg">

<path d="M11.1911 20V21M20.3631 11H21.3822M11.1911 2V1M2.01911 11H1" stroke="black" stroke-width="2" stroke-linecap="round"/>

<path d="M17.8152 17.5L18.3248 18M17.8152 4.5L18.3248 4M4.56681 4.5L4.05725 4M4.56681 17.5L4.05725 18" stroke="black" stroke-width="2" stroke-linecap="round"/>

<mask id="mask0_101_818" style="mask-type:luminance" maskUnits="userSpaceOnUse" x="-2" y="-2" width="27" height="25">

<path d="M11.1911 23C17.9451 23 23.4204 17.6274 23.4204 11C23.4204 4.37258 17.9451 -1 11.1911 -1C4.43704 -1 -1.03821 4.37258 -1.03821 11C-1.03821 17.6274 4.43704 23 11.1911 23Z" fill="white"/>

<path d="M21.382 4C23.0705 4 24.4394 2.65685 24.4394 1C24.4394 -0.656854 23.0705 -2 21.382 -2C19.6935 -2 18.3247 -0.656854 18.3247 1C18.3247 2.65685 19.6935 4 21.382 4Z" fill="white"/>

<path d="M21.3821 2C21.945 2 22.4013 1.55228 22.4013 1C22.4013 0.447715 21.945 0 21.3821 0C20.8193 0 20.363 0.447715 20.363 1C20.363 1.55228 20.8193 2 21.3821 2Z" fill="black"/>

</mask>

<g mask="url(#mask0_101_818)">

<path d="M11.1911 17C14.5681 17 17.3057 14.3137 17.3057 11C17.3057 7.68629 14.5681 5 11.1911 5C7.81404 5 5.07642 7.68629 5.07642 11C5.07642 14.3137 7.81404 17 11.1911 17Z" fill="black"/>

</g>

</svg>



