<svg width="29" height="32" viewBox="0 0 29 32" fill="none" xmlns="http://www.w3.org/2000/svg">

<path d="M14.5 12.8413V11.2267M14.5 12.8413L13.6058 14.0073M14.5 12.8413L13.1992 11.944M14.5 12.8413L15.3942 14.0073M14.5 12.8413L15.8008 11.944M18.4398 12.8413V11.2267M18.4398 12.8413L17.5456 14.0073M18.4398 12.8413L17.139 11.944M18.4398 12.8413L19.3339 14.0073M18.4398 12.8413L19.7405 11.944M10.5602 12.8413V11.2267M10.5602 12.8413L9.66606 14.0073M10.5602 12.8413L9.25946 11.944M10.5602 12.8413L11.4544 14.0073M10.5602 12.8413L11.861 11.944M21.0365 20.7733L26.2813 16.322L21.0365 11.8713M7.96352 20.7733L2.71875 16.322L7.96352 11.8713" stroke="#A1A8B0" stroke-linecap="round" stroke-linejoin="round"/>

</svg>



